# xmcd CD database file
#
# Track frame offsets:
#	150
#	21037
#	38792
#	50830
#	72012
#	94935
#	109070
#	135850
#	148370
#	163010
#	174765
#	189140
#	200047
#	214335
#	231505
#	248807
#	261090
#	278652
#	298645
#	331227
#
# Disc length: 4660 seconds
#
# Revision: 0
# Processed by: cddbd v1.5.1PL0 Copyright (c) Steve Scherf et al.
# Submitted via: CDex 1.51
#
DISCID=2a123214
DTITLE=JAZZ FINE - JAZZ FINE
DYEAR=2004
DGENRE=Jazz
TTITLE0=Lady Ocean
TTITLE1=Sax-A-Go-Go
TTITLE2=Papa Loves Mambo
TTITLE3=The Moment
TTITLE4=Waters Of March -'Cause I Love You
TTITLE5=Pineapple Rag
TTITLE6=The Sidewinder
TTITLE7=A Lover's Concerto
TTITLE8=Watermelon Man
TTITLE9=The Pink Panther Theme
TTITLE10=In The Mood
TTITLE11=Goody Goody
TTITLE12=Maria Elena
TTITLE13=The Entertainer
TTITLE14=All Of Me
TTITLE15=Everybody Loves The Blues
TTITLE16=Dreaming A Dream
TTITLE17=Moonlight Serenade
TTITLE18=I Always Knew I Had It In Me
TTITLE19=Theme From "Taxi Driver"
EXTD=YEAR: 2004
EXTT0=
EXTT1=
EXTT2=
EXTT3=
EXTT4=
EXTT5=
EXTT6=
EXTT7=
EXTT8=
EXTT9=
EXTT10=
EXTT11=
EXTT12=
EXTT13=
EXTT14=
EXTT15=
EXTT16=
EXTT17=
EXTT18=
EXTT19=
PLAYORDER=
